<svg xmlns="http://www.w3.org/2000/svg" width="660" height="150" viewBox="0 0 660 150">
  <defs>
    <linearGradient id="g" x1="0" y1="0" x2="1" y2="0">
      <stop offset="0%" stop-color="#c2255c"/>
      <stop offset="50%" stop-color="#e8590c"/>
      <stop offset="100%" stop-color="#c2255c"/>
    </linearGradient>
  </defs>

  <!-- Background -->
  <rect width="660" height="150" rx="10" fill="#ffffff"/>
  <rect x=".5" y=".5" width="659" height="149" rx="10" fill="none" stroke="#d0d7de"/>

  <!-- Logo: "dp" letters drawn as paved roads, desire path cuts through -->
  <g transform="translate(18, 37)">
    <!-- "d" as paved road: ascender + left bowl -->
    <line x1="24" y1="0" x2="24" y2="42" stroke="#d0d7de" stroke-width="4" stroke-linecap="round"/>
    <path d="M 24,14 C 14,14 4,22 4,28 C 4,36 14,42 24,42" fill="none" stroke="#d0d7de" stroke-width="4" stroke-linecap="round"/>

    <!-- "p" as paved road: right bowl + descender -->
    <line x1="48" y1="14" x2="48" y2="56" stroke="#d0d7de" stroke-width="4" stroke-linecap="round"/>
    <path d="M 48,14 C 58,14 68,22 68,28 C 68,36 58,42 48,42" fill="none" stroke="#d0d7de" stroke-width="4" stroke-linecap="round"/>

    <!-- Road connecting d and p at midpoint -->
    <line x1="24" y1="28" x2="48" y2="28" stroke="#d0d7de" stroke-width="3" stroke-linecap="round"/>

    <!-- Desire path: straight diagonal slicing through both letters -->
    <line x1="4" y1="50" x2="68" y2="6" stroke="url(#g)" stroke-width="2.5" stroke-linecap="round"/>
    <circle cx="4" cy="50" r="3" fill="url(#g)"/>
    <circle cx="68" cy="6" r="3" fill="url(#g)"/>
  </g>

  <!-- DESIRE PATH (figlet small font) -->
  <text font-family="SFMono-Regular,Menlo,Consolas,'Courier New',monospace" font-size="15" fill="url(#g)" xml:space="preserve">
    <tspan x="110" y="48"> ___  ___ ___ ___ ___ ___   ___  _ _____ _  _ </tspan>
    <tspan x="110" y="64">|   \| __/ __|_ _| _ \ __| | _ \/_\_   _| || |</tspan>
    <tspan x="110" y="80">| |) | _|\__ \| ||   / _|  |  _/ _ \| | | __ |</tspan>
    <tspan x="110" y="96">|___/|___|___/___|_|_\___| |_|/_/ \_\_| |_||_|</tspan>
  </text>

  <!-- Tagline -->
  <text x="330" y="132" font-family="-apple-system,BlinkMacSystemFont,'Segoe UI',Helvetica,Arial,sans-serif" font-size="13" fill="#656d76" text-anchor="middle" font-style="italic">Where the AI walks, the sidewalk should follow.</text>
</svg>
