<svg xmlns="http://www.w3.org/2000/svg" width="660" height="150" viewBox="0 0 660 150">
  <defs>
    <linearGradient id="g" x1="0" y1="0" x2="1" y2="0">
      <stop offset="0%" stop-color="#c2255c"/>
      <stop offset="50%" stop-color="#e8590c"/>
      <stop offset="100%" stop-color="#c2255c"/>
    </linearGradient>
  </defs>

  <!-- Background -->
  <rect width="660" height="150" rx="10" fill="#ffffff"/>
  <rect x=".5" y=".5" width="659" height="149" rx="10" fill="none" stroke="#d0d7de"/>

  <g transform="translate(24, 37)">
    <!-- Winding path: one continuous S-curve through d and p bowls -->
    <path d="M 30,6 C 16,6 4,16 4,23 C 4,32 16,37 30,37 C 44,37 56,44 56,51 C 56,60 44,68 30,68"
          fill="none" stroke="#d0d7de" stroke-width="4" stroke-linecap="round"/>

    <!-- Desire path: straight vertical line — the shared stroke of d and p -->
    <line x1="30" y1="-16" x2="30" y2="90"
          stroke="#e8590c" stroke-width="2.5" stroke-linecap="round"/>
    <circle cx="30" cy="-16" r="3" fill="#e8590c"/>
    <circle cx="30" cy="90" r="3" fill="#e8590c"/>
  </g>

  <!-- DESIRE PATH (figlet small font) -->
  <text font-family="SFMono-Regular,Menlo,Consolas,'Courier New',monospace" font-size="15" fill="url(#g)" xml:space="preserve">
    <tspan x="110" y="48"> ___  ___ ___ ___ ___ ___   ___  _ _____ _  _ </tspan>
    <tspan x="110" y="64">|   \| __/ __|_ _| _ \ __| | _ \/_\_   _| || |</tspan>
    <tspan x="110" y="80">| |) | _|\__ \| ||   / _|  |  _/ _ \| | | __ |</tspan>
    <tspan x="110" y="96">|___/|___|___/___|_|_\___| |_|/_/ \_\_| |_||_|</tspan>
  </text>

  <!-- Tagline -->
  <text x="330" y="132" font-family="-apple-system,BlinkMacSystemFont,'Segoe UI',Helvetica,Arial,sans-serif" font-size="13" fill="#656d76" text-anchor="middle" font-style="italic">Where the AI walks, the sidewalk should follow.</text>
</svg>
